<svg width="122" height="24" viewBox="0 0 122 24" fill="none" xmlns="http://www.w3.org/2000/svg">
<path d="M48.24 12.112C48.9013 12.304 49.408 12.64 49.76 13.12C50.1227 13.6 50.304 14.192 50.304 14.896C50.304 15.8667 49.9573 16.6293 49.264 17.184C48.5813 17.728 47.6267 18 46.4 18H41.232V6.608H46.24C47.4133 6.608 48.336 6.87467 49.008 7.408C49.68 7.93067 50.016 8.656 50.016 9.584C50.016 10.1813 49.856 10.704 49.536 11.152C49.2267 11.5893 48.7947 11.9093 48.24 12.112ZM43.248 11.408H45.904C47.3333 11.408 48.048 10.8747 48.048 9.808C48.048 9.27467 47.872 8.87467 47.52 8.608C47.168 8.34133 46.6293 8.208 45.904 8.208H43.248V11.408ZM46.176 16.4C46.9227 16.4 47.4667 16.2667 47.808 16C48.16 15.7333 48.336 15.312 48.336 14.736C48.336 14.1493 48.16 13.7173 47.808 13.44C47.4667 13.1627 46.9227 13.024 46.176 13.024H43.248V16.4H46.176ZM59.2869 14.064H53.7189C53.7615 14.928 53.9749 15.568 54.3589 15.984C54.7535 16.3893 55.3349 16.592 56.1029 16.592C56.9882 16.592 57.8095 16.304 58.5669 15.728L59.1429 17.104C58.7589 17.4133 58.2842 17.664 57.7189 17.856C57.1642 18.0373 56.5989 18.128 56.0229 18.128C54.7002 18.128 53.6602 17.7547 52.9029 17.008C52.1455 16.2613 51.7669 15.2373 51.7669 13.936C51.7669 13.1147 51.9322 12.384 52.2629 11.744C52.5935 11.104 53.0575 10.608 53.6549 10.256C54.2522 9.89333 54.9295 9.712 55.6869 9.712C56.7962 9.712 57.6709 10.0747 58.3109 10.8C58.9615 11.5147 59.2869 12.5013 59.2869 13.76V14.064ZM55.7349 11.152C55.2015 11.152 54.7642 11.312 54.4229 11.632C54.0922 11.9413 53.8789 12.3947 53.7829 12.992H57.5429C57.4789 12.384 57.2922 11.9253 56.9829 11.616C56.6842 11.3067 56.2682 11.152 55.7349 11.152ZM64.0205 18.128C62.5592 18.128 61.3965 17.7867 60.5325 17.104L61.0925 15.696C61.9565 16.336 62.9432 16.656 64.0525 16.656C64.5325 16.656 64.9005 16.576 65.1565 16.416C65.4232 16.256 65.5565 16.032 65.5565 15.744C65.5565 15.4987 65.4658 15.3067 65.2845 15.168C65.1032 15.0187 64.7938 14.8907 64.3565 14.784L63.0125 14.48C61.5405 14.16 60.8045 13.408 60.8045 12.224C60.8045 11.7333 60.9432 11.3013 61.2205 10.928C61.4978 10.544 61.8872 10.2453 62.3885 10.032C62.8898 9.81867 63.4712 9.712 64.1325 9.712C64.7085 9.712 65.2632 9.80267 65.7965 9.984C66.3298 10.1547 66.7992 10.4053 67.2045 10.736L66.6125 12.096C65.8018 11.4987 64.9698 11.2 64.1165 11.2C63.6578 11.2 63.3005 11.2853 63.0445 11.456C62.7885 11.6267 62.6605 11.8613 62.6605 12.16C62.6605 12.3947 62.7352 12.5813 62.8845 12.72C63.0445 12.8587 63.3112 12.976 63.6845 13.072L65.0605 13.376C65.8605 13.5573 66.4418 13.84 66.8045 14.224C67.1778 14.5973 67.3645 15.088 67.3645 15.696C67.3645 16.4427 67.0658 17.0347 66.4685 17.472C65.8712 17.9093 65.0552 18.128 64.0205 18.128ZM71.622 11.424V15.04C71.622 15.9893 72.0647 16.464 72.95 16.464C73.1953 16.464 73.462 16.4213 73.75 16.336V17.92C73.398 18.048 72.9713 18.112 72.47 18.112C71.5527 18.112 70.8487 17.856 70.358 17.344C69.8673 16.832 69.622 16.096 69.622 15.136V11.424H68.07V9.92H69.622V7.952L71.622 7.28V9.92H73.766V11.424H71.622ZM79.8351 6.608H84.0271C85.8938 6.608 87.3391 7.104 88.3631 8.096C89.3978 9.088 89.9151 10.4853 89.9151 12.288C89.9151 14.1013 89.3978 15.5093 88.3631 16.512C87.3391 17.504 85.8938 18 84.0271 18H79.8351V6.608ZM83.8991 16.32C86.5231 16.32 87.8351 14.976 87.8351 12.288C87.8351 9.62133 86.5231 8.288 83.8991 8.288H81.8991V16.32H83.8991ZM99.0306 14.064H93.4626C93.5053 14.928 93.7186 15.568 94.1026 15.984C94.4973 16.3893 95.0786 16.592 95.8466 16.592C96.732 16.592 97.5533 16.304 98.3106 15.728L98.8866 17.104C98.5026 17.4133 98.028 17.664 97.4626 17.856C96.908 18.0373 96.3426 18.128 95.7666 18.128C94.444 18.128 93.404 17.7547 92.6466 17.008C91.8893 16.2613 91.5106 15.2373 91.5106 13.936C91.5106 13.1147 91.676 12.384 92.0066 11.744C92.3373 11.104 92.8013 10.608 93.3986 10.256C93.996 9.89333 94.6733 9.712 95.4306 9.712C96.54 9.712 97.4146 10.0747 98.0546 10.8C98.7053 11.5147 99.0306 12.5013 99.0306 13.76V14.064ZM95.4786 11.152C94.9453 11.152 94.508 11.312 94.1666 11.632C93.836 11.9413 93.6226 12.3947 93.5266 12.992H97.2866C97.2226 12.384 97.036 11.9253 96.7266 11.616C96.428 11.3067 96.012 11.152 95.4786 11.152ZM108.532 9.92V18H106.564V16.704C106.319 17.152 105.967 17.504 105.508 17.76C105.05 18.0053 104.527 18.128 103.94 18.128C103.236 18.128 102.612 17.9573 102.068 17.616C101.524 17.2747 101.103 16.7893 100.804 16.16C100.506 15.5307 100.356 14.8 100.356 13.968C100.356 13.136 100.506 12.4 100.804 11.76C101.114 11.1093 101.54 10.608 102.084 10.256C102.628 9.89333 103.247 9.712 103.94 9.712C104.527 9.712 105.05 9.84 105.508 10.096C105.967 10.3413 106.319 10.688 106.564 11.136V9.92H108.532ZM104.484 16.56C105.146 16.56 105.658 16.3307 106.02 15.872C106.383 15.4133 106.564 14.768 106.564 13.936C106.564 13.0827 106.383 12.4267 106.02 11.968C105.658 11.5093 105.14 11.28 104.468 11.28C103.807 11.28 103.29 11.52 102.916 12C102.554 12.4693 102.372 13.1253 102.372 13.968C102.372 14.8 102.554 15.44 102.916 15.888C103.29 16.336 103.812 16.56 104.484 16.56ZM110.79 6.224H112.774V18H110.79V6.224ZM118.002 18.128C116.541 18.128 115.378 17.7867 114.514 17.104L115.074 15.696C115.938 16.336 116.925 16.656 118.034 16.656C118.514 16.656 118.882 16.576 119.138 16.416C119.405 16.256 119.538 16.032 119.538 15.744C119.538 15.4987 119.448 15.3067 119.266 15.168C119.085 15.0187 118.776 14.8907 118.338 14.784L116.994 14.48C115.522 14.16 114.786 13.408 114.786 12.224C114.786 11.7333 114.925 11.3013 115.202 10.928C115.48 10.544 115.869 10.2453 116.37 10.032C116.872 9.81867 117.453 9.712 118.114 9.712C118.69 9.712 119.245 9.80267 119.778 9.984C120.312 10.1547 120.781 10.4053 121.186 10.736L120.594 12.096C119.784 11.4987 118.952 11.2 118.098 11.2C117.64 11.2 117.282 11.2853 117.026 11.456C116.77 11.6267 116.642 11.8613 116.642 12.16C116.642 12.3947 116.717 12.5813 116.866 12.72C117.026 12.8587 117.293 12.976 117.666 13.072L119.042 13.376C119.842 13.5573 120.424 13.84 120.786 14.224C121.16 14.5973 121.346 15.088 121.346 15.696C121.346 16.4427 121.048 17.0347 120.45 17.472C119.853 17.9093 119.037 18.128 118.002 18.128Z" fill="#11142D"/>
<path d="M12 2C10.0222 2 8.08879 2.58649 6.4443 3.6853C4.79981 4.78412 3.51809 6.3459 2.76121 8.17317C2.00433 10.0004 1.8063 12.0111 2.19215 13.9509C2.578 15.8907 3.53041 17.6725 4.92894 19.0711C6.32746 20.4696 8.10929 21.422 10.0491 21.8079C11.9889 22.1937 13.9996 21.9957 15.8268 21.2388C17.6541 20.4819 19.2159 19.2002 20.3147 17.5557C21.4135 15.9112 22 13.9778 22 12C21.9971 9.34873 20.9426 6.80688 19.0679 4.93215C17.1931 3.05742 14.6513 2.00291 12 2V2ZM12 20C10.4178 20 8.87104 19.5308 7.55544 18.6518C6.23985 17.7727 5.21447 16.5233 4.60897 15.0615C4.00347 13.5997 3.84504 11.9911 4.15372 10.4393C4.4624 8.88743 5.22433 7.46197 6.34315 6.34315C7.46197 5.22433 8.88743 4.4624 10.4393 4.15372C11.9911 3.84504 13.5997 4.00346 15.0615 4.60896C16.5233 5.21447 17.7727 6.23984 18.6518 7.55544C19.5308 8.87103 20 10.4177 20 12C19.9976 14.121 19.154 16.1544 17.6542 17.6542C16.1545 19.154 14.121 19.9976 12 20V20Z" fill="#FA3C45"/>
<path d="M16.293 8.29297L11 13.586L8.70697 11.293L7.29297 12.707L11 16.414L17.707 9.70697L16.293 8.29297Z" fill="#FA3C45"/>
</svg>
