<svg width="161" height="24" viewBox="0 0 161 24" fill="none" xmlns="http://www.w3.org/2000/svg">
<path d="M46.4 18.144C45.28 18.144 44.2987 17.904 43.456 17.424C42.624 16.944 41.984 16.2667 41.536 15.392C41.088 14.5067 40.864 13.472 40.864 12.288C40.864 11.1147 41.088 10.0907 41.536 9.216C41.984 8.33067 42.624 7.65333 43.456 7.184C44.2987 6.704 45.28 6.464 46.4 6.464C47.168 6.464 47.888 6.58667 48.56 6.832C49.2427 7.06667 49.808 7.39733 50.256 7.824L49.584 9.328C49.072 8.912 48.56 8.61333 48.048 8.432C47.5467 8.24 47.008 8.144 46.432 8.144C45.3333 8.144 44.48 8.50133 43.872 9.216C43.2747 9.93067 42.976 10.9547 42.976 12.288C42.976 13.632 43.2747 14.6667 43.872 15.392C44.4693 16.1067 45.3227 16.464 46.432 16.464C47.008 16.464 47.5467 16.3733 48.048 16.192C48.56 16 49.072 15.696 49.584 15.28L50.256 16.784C49.808 17.2107 49.2427 17.5467 48.56 17.792C47.888 18.0267 47.168 18.144 46.4 18.144ZM55.6289 18.128C54.8075 18.128 54.0822 17.9573 53.4529 17.616C52.8342 17.2747 52.3542 16.7893 52.0129 16.16C51.6822 15.52 51.5169 14.7733 51.5169 13.92C51.5169 13.0667 51.6822 12.3253 52.0129 11.696C52.3542 11.056 52.8342 10.5653 53.4529 10.224C54.0822 9.88267 54.8075 9.712 55.6289 9.712C56.4395 9.712 57.1542 9.88267 57.7729 10.224C58.3915 10.5653 58.8662 11.056 59.1969 11.696C59.5382 12.3253 59.7089 13.0667 59.7089 13.92C59.7089 14.7733 59.5382 15.52 59.1969 16.16C58.8662 16.7893 58.3915 17.2747 57.7729 17.616C57.1542 17.9573 56.4395 18.128 55.6289 18.128ZM55.6129 16.56C56.2955 16.56 56.8129 16.3413 57.1649 15.904C57.5275 15.456 57.7089 14.7947 57.7089 13.92C57.7089 13.056 57.5275 12.4 57.1649 11.952C56.8022 11.4933 56.2902 11.264 55.6289 11.264C54.9569 11.264 54.4395 11.4933 54.0769 11.952C53.7142 12.4 53.5329 13.056 53.5329 13.92C53.5329 14.7947 53.7089 15.456 54.0609 15.904C54.4235 16.3413 54.9409 16.56 55.6129 16.56ZM71.0496 9.712C71.967 9.712 72.6496 9.98933 73.0976 10.544C73.5456 11.088 73.7696 11.92 73.7696 13.04V18H71.7696V13.104C71.7696 12.464 71.663 12.0053 71.4496 11.728C71.247 11.44 70.9056 11.296 70.4256 11.296C69.871 11.296 69.4336 11.4933 69.1136 11.888C68.8043 12.272 68.6496 12.8053 68.6496 13.488V18H66.6496V13.104C66.6496 12.4747 66.5376 12.016 66.3136 11.728C66.1003 11.44 65.759 11.296 65.2896 11.296C64.735 11.296 64.2976 11.4933 63.9776 11.888C63.6576 12.272 63.4976 12.8053 63.4976 13.488V18H61.5136V12.208C61.5136 11.3547 61.471 10.592 61.3856 9.92H63.2576L63.4016 11.2C63.6363 10.72 63.9723 10.352 64.4096 10.096C64.8576 9.84 65.3696 9.712 65.9456 9.712C67.183 9.712 67.9883 10.224 68.3616 11.248C68.6176 10.768 68.9803 10.3947 69.4496 10.128C69.9296 9.85067 70.463 9.712 71.0496 9.712ZM80.5923 9.712C81.2856 9.712 81.8989 9.89333 82.4323 10.256C82.9763 10.608 83.3976 11.1093 83.6963 11.76C84.0056 12.4 84.1603 13.136 84.1603 13.968C84.1603 14.8 84.0109 15.5307 83.7123 16.16C83.4136 16.7893 82.9923 17.2747 82.4483 17.616C81.9149 17.9573 81.2963 18.128 80.5923 18.128C80.0056 18.128 79.4829 18.0053 79.0243 17.76C78.5656 17.504 78.2136 17.152 77.9683 16.704V21.456H75.9843V12.208C75.9843 11.3547 75.9416 10.592 75.8563 9.92H77.7283L77.8883 11.312C78.1016 10.8107 78.4483 10.4213 78.9283 10.144C79.4083 9.856 79.9629 9.712 80.5923 9.712ZM80.0483 16.56C80.7203 16.56 81.2376 16.336 81.6003 15.888C81.9629 15.44 82.1443 14.8 82.1443 13.968C82.1443 13.1253 81.9629 12.4693 81.6003 12C81.2376 11.52 80.7256 11.28 80.0643 11.28C79.3816 11.28 78.8589 11.5093 78.4963 11.968C78.1336 12.4267 77.9523 13.0827 77.9523 13.936C77.9523 14.7787 78.1336 15.4293 78.4963 15.888C78.8589 16.336 79.3763 16.56 80.0483 16.56ZM93.7141 9.92V18H91.7461V16.704C91.5008 17.152 91.1488 17.504 90.6901 17.76C90.2315 18.0053 89.7088 18.128 89.1221 18.128C88.4181 18.128 87.7941 17.9573 87.2501 17.616C86.7061 17.2747 86.2848 16.7893 85.9861 16.16C85.6875 15.5307 85.5381 14.8 85.5381 13.968C85.5381 13.136 85.6875 12.4 85.9861 11.76C86.2955 11.1093 86.7221 10.608 87.2661 10.256C87.8101 9.89333 88.4288 9.712 89.1221 9.712C89.7088 9.712 90.2315 9.84 90.6901 10.096C91.1488 10.3413 91.5008 10.688 91.7461 11.136V9.92H93.7141ZM89.6661 16.56C90.3275 16.56 90.8395 16.3307 91.2021 15.872C91.5648 15.4133 91.7461 14.768 91.7461 13.936C91.7461 13.0827 91.5648 12.4267 91.2021 11.968C90.8395 11.5093 90.3221 11.28 89.6501 11.28C88.9888 11.28 88.4715 11.52 88.0981 12C87.7355 12.4693 87.5541 13.1253 87.5541 13.968C87.5541 14.8 87.7355 15.44 88.0981 15.888C88.4715 16.336 88.9941 16.56 89.6661 16.56ZM100.324 9.728C100.634 9.728 100.9 9.77067 101.124 9.856L101.108 11.68C100.767 11.5413 100.415 11.472 100.052 11.472C99.3697 11.472 98.847 11.6693 98.4844 12.064C98.1324 12.4587 97.9564 12.9813 97.9564 13.632V18H95.9724V12.208C95.9724 11.3547 95.9297 10.592 95.8444 9.92H97.7164L97.8764 11.344C98.079 10.8213 98.399 10.4213 98.8364 10.144C99.2737 9.86667 99.7697 9.728 100.324 9.728ZM109.234 14.064H103.666C103.708 14.928 103.922 15.568 104.306 15.984C104.7 16.3893 105.282 16.592 106.05 16.592C106.935 16.592 107.756 16.304 108.514 15.728L109.09 17.104C108.706 17.4133 108.231 17.664 107.666 17.856C107.111 18.0373 106.546 18.128 105.97 18.128C104.647 18.128 103.607 17.7547 102.85 17.008C102.092 16.2613 101.714 15.2373 101.714 13.936C101.714 13.1147 101.879 12.384 102.21 11.744C102.54 11.104 103.004 10.608 103.602 10.256C104.199 9.89333 104.876 9.712 105.634 9.712C106.743 9.712 107.618 10.0747 108.258 10.8C108.908 11.5147 109.234 12.5013 109.234 13.76V14.064ZM105.682 11.152C105.148 11.152 104.711 11.312 104.37 11.632C104.039 11.9413 103.826 12.3947 103.73 12.992H107.49C107.426 12.384 107.239 11.9253 106.93 11.616C106.631 11.3067 106.215 11.152 105.682 11.152ZM115.622 6.608H120.566C121.793 6.608 122.747 6.90667 123.43 7.504C124.113 8.09067 124.454 8.896 124.454 9.92C124.454 10.944 124.107 11.7547 123.414 12.352C122.731 12.9493 121.782 13.248 120.566 13.248H117.686V18H115.622V6.608ZM120.326 11.648C121.041 11.648 121.579 11.504 121.942 11.216C122.315 10.9173 122.502 10.4907 122.502 9.936C122.502 9.37067 122.321 8.944 121.958 8.656C121.595 8.35733 121.051 8.208 120.326 8.208H117.686V11.648H120.326ZM130.41 9.728C130.719 9.728 130.986 9.77067 131.21 9.856L131.194 11.68C130.853 11.5413 130.501 11.472 130.138 11.472C129.455 11.472 128.933 11.6693 128.57 12.064C128.218 12.4587 128.042 12.9813 128.042 13.632V18H126.058V12.208C126.058 11.3547 126.015 10.592 125.93 9.92H127.802L127.962 11.344C128.165 10.8213 128.485 10.4213 128.922 10.144C129.359 9.86667 129.855 9.728 130.41 9.728ZM132.404 9.92H134.388V18H132.404V9.92ZM134.5 6.256V8.224H132.276V6.256H134.5ZM140.319 18.128C139.477 18.128 138.746 17.9573 138.127 17.616C137.509 17.2747 137.034 16.7947 136.703 16.176C136.373 15.5467 136.207 14.8107 136.207 13.968C136.207 13.1253 136.378 12.384 136.719 11.744C137.071 11.104 137.562 10.608 138.191 10.256C138.831 9.89333 139.567 9.712 140.399 9.712C140.975 9.712 141.53 9.80267 142.063 9.984C142.607 10.1653 143.039 10.416 143.359 10.736L142.799 12.144C142.458 11.8667 142.095 11.6587 141.711 11.52C141.327 11.3707 140.949 11.296 140.575 11.296C139.85 11.296 139.285 11.5253 138.879 11.984C138.474 12.432 138.271 13.0827 138.271 13.936C138.271 14.7893 138.469 15.44 138.863 15.888C139.269 16.336 139.839 16.56 140.575 16.56C140.949 16.56 141.327 16.4853 141.711 16.336C142.095 16.1867 142.458 15.9733 142.799 15.696L143.359 17.104C143.018 17.424 142.575 17.6747 142.031 17.856C141.487 18.0373 140.917 18.128 140.319 18.128ZM151.854 14.064H146.286C146.329 14.928 146.542 15.568 146.926 15.984C147.321 16.3893 147.902 16.592 148.67 16.592C149.556 16.592 150.377 16.304 151.134 15.728L151.71 17.104C151.326 17.4133 150.852 17.664 150.286 17.856C149.732 18.0373 149.166 18.128 148.59 18.128C147.268 18.128 146.228 17.7547 145.47 17.008C144.713 16.2613 144.334 15.2373 144.334 13.936C144.334 13.1147 144.5 12.384 144.83 11.744C145.161 11.104 145.625 10.608 146.222 10.256C146.82 9.89333 147.497 9.712 148.254 9.712C149.364 9.712 150.238 10.0747 150.878 10.8C151.529 11.5147 151.854 12.5013 151.854 13.76V14.064ZM148.302 11.152C147.769 11.152 147.332 11.312 146.99 11.632C146.66 11.9413 146.446 12.3947 146.35 12.992H150.11C150.046 12.384 149.86 11.9253 149.55 11.616C149.252 11.3067 148.836 11.152 148.302 11.152ZM156.588 18.128C155.127 18.128 153.964 17.7867 153.1 17.104L153.66 15.696C154.524 16.336 155.511 16.656 156.62 16.656C157.1 16.656 157.468 16.576 157.724 16.416C157.991 16.256 158.124 16.032 158.124 15.744C158.124 15.4987 158.033 15.3067 157.852 15.168C157.671 15.0187 157.361 14.8907 156.924 14.784L155.58 14.48C154.108 14.16 153.372 13.408 153.372 12.224C153.372 11.7333 153.511 11.3013 153.788 10.928C154.065 10.544 154.455 10.2453 154.956 10.032C155.457 9.81867 156.039 9.712 156.7 9.712C157.276 9.712 157.831 9.80267 158.364 9.984C158.897 10.1547 159.367 10.4053 159.772 10.736L159.18 12.096C158.369 11.4987 157.537 11.2 156.684 11.2C156.225 11.2 155.868 11.2853 155.612 11.456C155.356 11.6267 155.228 11.8613 155.228 12.16C155.228 12.3947 155.303 12.5813 155.452 12.72C155.612 12.8587 155.879 12.976 156.252 13.072L157.628 13.376C158.428 13.5573 159.009 13.84 159.372 14.224C159.745 14.5973 159.932 15.088 159.932 15.696C159.932 16.4427 159.633 17.0347 159.036 17.472C158.439 17.9093 157.623 18.128 156.588 18.128Z" fill="#11142D"/>
<path d="M12 2C10.0222 2 8.08879 2.58649 6.4443 3.6853C4.79981 4.78412 3.51809 6.3459 2.76121 8.17317C2.00433 10.0004 1.8063 12.0111 2.19215 13.9509C2.578 15.8907 3.53041 17.6725 4.92894 19.0711C6.32746 20.4696 8.10929 21.422 10.0491 21.8079C11.9889 22.1937 13.9996 21.9957 15.8268 21.2388C17.6541 20.4819 19.2159 19.2002 20.3147 17.5557C21.4135 15.9112 22 13.9778 22 12C21.9971 9.34873 20.9426 6.80688 19.0679 4.93215C17.1931 3.05742 14.6513 2.00291 12 2ZM12 20C10.4178 20 8.87104 19.5308 7.55544 18.6518C6.23985 17.7727 5.21447 16.5233 4.60897 15.0615C4.00347 13.5997 3.84504 11.9911 4.15372 10.4393C4.4624 8.88743 5.22433 7.46197 6.34315 6.34315C7.46197 5.22433 8.88743 4.4624 10.4393 4.15372C11.9911 3.84504 13.5997 4.00346 15.0615 4.60896C16.5233 5.21447 17.7727 6.23984 18.6518 7.55544C19.5308 8.87103 20 10.4177 20 12C19.9976 14.121 19.154 16.1544 17.6542 17.6542C16.1545 19.154 14.121 19.9976 12 20Z" fill="#FA3C45"/>
<path d="M16.293 8.29297L11 13.586L8.70697 11.293L7.29297 12.707L11 16.414L17.707 9.70697L16.293 8.29297Z" fill="#FA3C45"/>
</svg>
