<svg width="123" height="24" viewBox="0 0 123 24" fill="none" xmlns="http://www.w3.org/2000/svg">
<path d="M46.4 18.144C45.28 18.144 44.2987 17.904 43.456 17.424C42.624 16.944 41.984 16.2667 41.536 15.392C41.088 14.5067 40.864 13.472 40.864 12.288C40.864 11.1147 41.088 10.0907 41.536 9.216C41.984 8.33067 42.624 7.65333 43.456 7.184C44.2987 6.704 45.28 6.464 46.4 6.464C47.168 6.464 47.888 6.58667 48.56 6.832C49.2427 7.06667 49.808 7.39733 50.256 7.824L49.584 9.328C49.072 8.912 48.56 8.61333 48.048 8.432C47.5467 8.24 47.008 8.144 46.432 8.144C45.3333 8.144 44.48 8.50133 43.872 9.216C43.2747 9.93067 42.976 10.9547 42.976 12.288C42.976 13.632 43.2747 14.6667 43.872 15.392C44.4693 16.1067 45.3227 16.464 46.432 16.464C47.008 16.464 47.5467 16.3733 48.048 16.192C48.56 16 49.072 15.696 49.584 15.28L50.256 16.784C49.808 17.2107 49.2427 17.5467 48.56 17.792C47.888 18.0267 47.168 18.144 46.4 18.144ZM59.6929 9.92V18H57.7249V16.704C57.4795 17.152 57.1275 17.504 56.6689 17.76C56.2102 18.0053 55.6875 18.128 55.1009 18.128C54.3969 18.128 53.7729 17.9573 53.2289 17.616C52.6849 17.2747 52.2635 16.7893 51.9649 16.16C51.6662 15.5307 51.5169 14.8 51.5169 13.968C51.5169 13.136 51.6662 12.4 51.9649 11.76C52.2742 11.1093 52.7009 10.608 53.2449 10.256C53.7889 9.89333 54.4075 9.712 55.1009 9.712C55.6875 9.712 56.2102 9.84 56.6689 10.096C57.1275 10.3413 57.4795 10.688 57.7249 11.136V9.92H59.6929ZM55.6449 16.56C56.3062 16.56 56.8182 16.3307 57.1809 15.872C57.5435 15.4133 57.7249 14.768 57.7249 13.936C57.7249 13.0827 57.5435 12.4267 57.1809 11.968C56.8182 11.5093 56.3009 11.28 55.6289 11.28C54.9675 11.28 54.4502 11.52 54.0769 12C53.7142 12.4693 53.5329 13.1253 53.5329 13.968C53.5329 14.8 53.7142 15.44 54.0769 15.888C54.4502 16.336 54.9729 16.56 55.6449 16.56ZM66.3031 9.728C66.6125 9.728 66.8791 9.77067 67.1031 9.856L67.0871 11.68C66.7458 11.5413 66.3938 11.472 66.0311 11.472C65.3485 11.472 64.8258 11.6693 64.4631 12.064C64.1111 12.4587 63.9351 12.9813 63.9351 13.632V18H61.9511V12.208C61.9511 11.3547 61.9085 10.592 61.8231 9.92H63.6951L63.8551 11.344C64.0578 10.8213 64.3778 10.4213 64.8151 10.144C65.2525 9.86667 65.7485 9.728 66.3031 9.728ZM72.9114 6.608H77.1034C78.97 6.608 80.4154 7.104 81.4394 8.096C82.474 9.088 82.9914 10.4853 82.9914 12.288C82.9914 14.1013 82.474 15.5093 81.4394 16.512C80.4154 17.504 78.97 18 77.1034 18H72.9114V6.608ZM76.9754 16.32C79.5994 16.32 80.9114 14.976 80.9114 12.288C80.9114 9.62133 79.5994 8.288 76.9754 8.288H74.9754V16.32H76.9754ZM92.1069 14.064H86.5389C86.5815 14.928 86.7949 15.568 87.1789 15.984C87.5735 16.3893 88.1549 16.592 88.9229 16.592C89.8082 16.592 90.6295 16.304 91.3869 15.728L91.9629 17.104C91.5789 17.4133 91.1042 17.664 90.5389 17.856C89.9842 18.0373 89.4189 18.128 88.8429 18.128C87.5202 18.128 86.4802 17.7547 85.7229 17.008C84.9655 16.2613 84.5869 15.2373 84.5869 13.936C84.5869 13.1147 84.7522 12.384 85.0829 11.744C85.4135 11.104 85.8775 10.608 86.4749 10.256C87.0722 9.89333 87.7495 9.712 88.5069 9.712C89.6162 9.712 90.4909 10.0747 91.1309 10.8C91.7815 11.5147 92.1069 12.5013 92.1069 13.76V14.064ZM88.5549 11.152C88.0215 11.152 87.5842 11.312 87.2429 11.632C86.9122 11.9413 86.6989 12.3947 86.6029 12.992H90.3629C90.2989 12.384 90.1122 11.9253 89.8029 11.616C89.5042 11.3067 89.0882 11.152 88.5549 11.152ZM101.608 9.92V18H99.6405V16.704C99.3952 17.152 99.0432 17.504 98.5845 17.76C98.1258 18.0053 97.6032 18.128 97.0165 18.128C96.3125 18.128 95.6885 17.9573 95.1445 17.616C94.6005 17.2747 94.1792 16.7893 93.8805 16.16C93.5818 15.5307 93.4325 14.8 93.4325 13.968C93.4325 13.136 93.5818 12.4 93.8805 11.76C94.1898 11.1093 94.6165 10.608 95.1605 10.256C95.7045 9.89333 96.3232 9.712 97.0165 9.712C97.6032 9.712 98.1258 9.84 98.5845 10.096C99.0432 10.3413 99.3952 10.688 99.6405 11.136V9.92H101.608ZM97.5605 16.56C98.2218 16.56 98.7338 16.3307 99.0965 15.872C99.4592 15.4133 99.6405 14.768 99.6405 13.936C99.6405 13.0827 99.4592 12.4267 99.0965 11.968C98.7338 11.5093 98.2165 11.28 97.5445 11.28C96.8832 11.28 96.3658 11.52 95.9925 12C95.6298 12.4693 95.4485 13.1253 95.4485 13.968C95.4485 14.8 95.6298 15.44 95.9925 15.888C96.3658 16.336 96.8885 16.56 97.5605 16.56ZM103.867 6.224H105.851V18H103.867V6.224ZM115.191 14.064H109.623C109.665 14.928 109.879 15.568 110.263 15.984C110.657 16.3893 111.239 16.592 112.007 16.592C112.892 16.592 113.713 16.304 114.471 15.728L115.047 17.104C114.663 17.4133 114.188 17.664 113.623 17.856C113.068 18.0373 112.503 18.128 111.927 18.128C110.604 18.128 109.564 17.7547 108.807 17.008C108.049 16.2613 107.671 15.2373 107.671 13.936C107.671 13.1147 107.836 12.384 108.167 11.744C108.497 11.104 108.961 10.608 109.559 10.256C110.156 9.89333 110.833 9.712 111.591 9.712C112.7 9.712 113.575 10.0747 114.215 10.8C114.865 11.5147 115.191 12.5013 115.191 13.76V14.064ZM111.639 11.152C111.105 11.152 110.668 11.312 110.327 11.632C109.996 11.9413 109.783 12.3947 109.687 12.992H113.447C113.383 12.384 113.196 11.9253 112.887 11.616C112.588 11.3067 112.172 11.152 111.639 11.152ZM121.316 9.728C121.626 9.728 121.892 9.77067 122.116 9.856L122.1 11.68C121.759 11.5413 121.407 11.472 121.044 11.472C120.362 11.472 119.839 11.6693 119.476 12.064C119.124 12.4587 118.948 12.9813 118.948 13.632V18H116.964V12.208C116.964 11.3547 116.922 10.592 116.836 9.92H118.708L118.868 11.344C119.071 10.8213 119.391 10.4213 119.828 10.144C120.266 9.86667 120.762 9.728 121.316 9.728Z" fill="#11142D"/>
<path d="M12 2C10.0222 2 8.08879 2.58649 6.4443 3.6853C4.79981 4.78412 3.51809 6.3459 2.76121 8.17317C2.00433 10.0004 1.8063 12.0111 2.19215 13.9509C2.578 15.8907 3.53041 17.6725 4.92894 19.0711C6.32746 20.4696 8.10929 21.422 10.0491 21.8079C11.9889 22.1937 13.9996 21.9957 15.8268 21.2388C17.6541 20.4819 19.2159 19.2002 20.3147 17.5557C21.4135 15.9112 22 13.9778 22 12C21.9971 9.34873 20.9426 6.80688 19.0679 4.93215C17.1931 3.05742 14.6513 2.00291 12 2ZM12 20C10.4178 20 8.87104 19.5308 7.55544 18.6518C6.23985 17.7727 5.21447 16.5233 4.60897 15.0615C4.00347 13.5997 3.84504 11.9911 4.15372 10.4393C4.4624 8.88743 5.22433 7.46197 6.34315 6.34315C7.46197 5.22433 8.88743 4.4624 10.4393 4.15372C11.9911 3.84504 13.5997 4.00346 15.0615 4.60896C16.5233 5.21447 17.7727 6.23984 18.6518 7.55544C19.5308 8.87103 20 10.4177 20 12C19.9976 14.121 19.154 16.1544 17.6542 17.6542C16.1545 19.154 14.121 19.9976 12 20Z" fill="#FA3C45"/>
<path d="M16.293 8.29297L11 13.586L8.70697 11.293L7.29297 12.707L11 16.414L17.707 9.70697L16.293 8.29297Z" fill="#FA3C45"/>
</svg>
