<svg width="179" height="24" viewBox="0 0 179 24" fill="none" xmlns="http://www.w3.org/2000/svg">
<path d="M45.088 18.144C44.2133 18.144 43.392 18.0267 42.624 17.792C41.8667 17.5573 41.2213 17.2213 40.688 16.784L41.392 15.28C41.9467 15.696 42.5227 16.0053 43.12 16.208C43.728 16.4 44.3893 16.496 45.104 16.496C45.8933 16.496 46.5013 16.3573 46.928 16.08C47.3653 15.8027 47.584 15.4133 47.584 14.912C47.584 14.4853 47.3813 14.16 46.976 13.936C46.5813 13.7013 45.9253 13.4827 45.008 13.28C43.5787 12.9707 42.5387 12.5707 41.888 12.08C41.2373 11.5893 40.912 10.8747 40.912 9.936C40.912 9.264 41.0933 8.66667 41.456 8.144C41.8187 7.62133 42.3307 7.21067 42.992 6.912C43.664 6.61333 44.4373 6.464 45.312 6.464C46.112 6.464 46.8693 6.58667 47.584 6.832C48.3093 7.06667 48.9013 7.39733 49.36 7.824L48.672 9.328C47.6587 8.51733 46.5387 8.112 45.312 8.112C44.576 8.112 43.9947 8.26667 43.568 8.576C43.1413 8.87467 42.928 9.28533 42.928 9.808C42.928 10.256 43.1147 10.5973 43.488 10.832C43.872 11.0667 44.5227 11.2853 45.44 11.488C46.3893 11.712 47.1627 11.9573 47.76 12.224C48.3573 12.48 48.816 12.816 49.136 13.232C49.456 13.6373 49.616 14.1493 49.616 14.768C49.616 15.4507 49.4347 16.048 49.072 16.56C48.7093 17.0613 48.1867 17.4507 47.504 17.728C46.8213 18.0053 46.016 18.144 45.088 18.144ZM56.0889 9.712C58.0195 9.712 58.9849 10.8213 58.9849 13.04V18H56.9849V13.136C56.9849 12.496 56.8622 12.032 56.6169 11.744C56.3715 11.4453 55.9929 11.296 55.4809 11.296C54.8729 11.296 54.3822 11.4933 54.0089 11.888C53.6355 12.272 53.4489 12.784 53.4489 13.424V18H51.4649V6.224H53.4489V11.088C53.7262 10.6507 54.0942 10.3147 54.5529 10.08C55.0115 9.83467 55.5235 9.712 56.0889 9.712ZM64.8495 18.128C64.0282 18.128 63.3028 17.9573 62.6735 17.616C62.0548 17.2747 61.5748 16.7893 61.2335 16.16C60.9028 15.52 60.7375 14.7733 60.7375 13.92C60.7375 13.0667 60.9028 12.3253 61.2335 11.696C61.5748 11.056 62.0548 10.5653 62.6735 10.224C63.3028 9.88267 64.0282 9.712 64.8495 9.712C65.6602 9.712 66.3748 9.88267 66.9935 10.224C67.6122 10.5653 68.0868 11.056 68.4175 11.696C68.7588 12.3253 68.9295 13.0667 68.9295 13.92C68.9295 14.7733 68.7588 15.52 68.4175 16.16C68.0868 16.7893 67.6122 17.2747 66.9935 17.616C66.3748 17.9573 65.6602 18.128 64.8495 18.128ZM64.8335 16.56C65.5162 16.56 66.0335 16.3413 66.3855 15.904C66.7482 15.456 66.9295 14.7947 66.9295 13.92C66.9295 13.056 66.7482 12.4 66.3855 11.952C66.0228 11.4933 65.5108 11.264 64.8495 11.264C64.1775 11.264 63.6602 11.4933 63.2975 11.952C62.9348 12.4 62.7535 13.056 62.7535 13.92C62.7535 14.7947 62.9295 15.456 63.2815 15.904C63.6442 16.3413 64.1615 16.56 64.8335 16.56ZM83.4576 9.92L80.2896 18H78.5456L76.5456 12.704L74.5936 18H72.8336L69.6656 9.92H71.7136L73.7936 15.616L75.8896 9.92H77.3296L79.4256 15.664L81.5056 9.92H83.4576ZM89.1506 9.728C89.46 9.728 89.7266 9.77067 89.9506 9.856L89.9346 11.68C89.5933 11.5413 89.2413 11.472 88.8786 11.472C88.196 11.472 87.6733 11.6693 87.3106 12.064C86.9586 12.4587 86.7826 12.9813 86.7826 13.632V18H84.7986V12.208C84.7986 11.3547 84.756 10.592 84.6706 9.92H86.5426L86.7026 11.344C86.9053 10.8213 87.2253 10.4213 87.6626 10.144C88.1 9.86667 88.596 9.728 89.1506 9.728ZM94.652 18.128C93.8307 18.128 93.1053 17.9573 92.476 17.616C91.8573 17.2747 91.3773 16.7893 91.036 16.16C90.7053 15.52 90.54 14.7733 90.54 13.92C90.54 13.0667 90.7053 12.3253 91.036 11.696C91.3773 11.056 91.8573 10.5653 92.476 10.224C93.1053 9.88267 93.8307 9.712 94.652 9.712C95.4627 9.712 96.1773 9.88267 96.796 10.224C97.4147 10.5653 97.8893 11.056 98.22 11.696C98.5613 12.3253 98.732 13.0667 98.732 13.92C98.732 14.7733 98.5613 15.52 98.22 16.16C97.8893 16.7893 97.4147 17.2747 96.796 17.616C96.1773 17.9573 95.4627 18.128 94.652 18.128ZM94.636 16.56C95.3187 16.56 95.836 16.3413 96.188 15.904C96.5507 15.456 96.732 14.7947 96.732 13.92C96.732 13.056 96.5507 12.4 96.188 11.952C95.8253 11.4933 95.3133 11.264 94.652 11.264C93.98 11.264 93.4627 11.4933 93.1 11.952C92.7373 12.4 92.556 13.056 92.556 13.92C92.556 14.7947 92.732 15.456 93.084 15.904C93.4467 16.3413 93.964 16.56 94.636 16.56ZM104.201 18.128C103.379 18.128 102.654 17.9573 102.025 17.616C101.406 17.2747 100.926 16.7893 100.585 16.16C100.254 15.52 100.089 14.7733 100.089 13.92C100.089 13.0667 100.254 12.3253 100.585 11.696C100.926 11.056 101.406 10.5653 102.025 10.224C102.654 9.88267 103.379 9.712 104.201 9.712C105.011 9.712 105.726 9.88267 106.345 10.224C106.963 10.5653 107.438 11.056 107.769 11.696C108.11 12.3253 108.281 13.0667 108.281 13.92C108.281 14.7733 108.11 15.52 107.769 16.16C107.438 16.7893 106.963 17.2747 106.345 17.616C105.726 17.9573 105.011 18.128 104.201 18.128ZM104.185 16.56C104.867 16.56 105.385 16.3413 105.737 15.904C106.099 15.456 106.281 14.7947 106.281 13.92C106.281 13.056 106.099 12.4 105.737 11.952C105.374 11.4933 104.862 11.264 104.201 11.264C103.529 11.264 103.011 11.4933 102.649 11.952C102.286 12.4 102.105 13.056 102.105 13.92C102.105 14.7947 102.281 15.456 102.633 15.904C102.995 16.3413 103.513 16.56 104.185 16.56ZM119.621 9.712C120.539 9.712 121.221 9.98933 121.669 10.544C122.117 11.088 122.341 11.92 122.341 13.04V18H120.341V13.104C120.341 12.464 120.235 12.0053 120.021 11.728C119.819 11.44 119.477 11.296 118.997 11.296C118.443 11.296 118.005 11.4933 117.685 11.888C117.376 12.272 117.221 12.8053 117.221 13.488V18H115.221V13.104C115.221 12.4747 115.109 12.016 114.885 11.728C114.672 11.44 114.331 11.296 113.861 11.296C113.307 11.296 112.869 11.4933 112.549 11.888C112.229 12.272 112.069 12.8053 112.069 13.488V18H110.085V12.208C110.085 11.3547 110.043 10.592 109.957 9.92H111.829L111.973 11.2C112.208 10.72 112.544 10.352 112.981 10.096C113.429 9.84 113.941 9.712 114.517 9.712C115.755 9.712 116.56 10.224 116.933 11.248C117.189 10.768 117.552 10.3947 118.021 10.128C118.501 9.85067 119.035 9.712 119.621 9.712ZM129.171 6.608H136.787V8.24H131.187V11.392H136.451V13.024H131.187V16.368H136.787V18H129.171V6.608ZM146.27 9.936L142.734 18H140.99L137.502 9.936H139.598L141.918 15.728L144.286 9.936H146.27ZM154.321 14.064H148.753C148.796 14.928 149.009 15.568 149.393 15.984C149.788 16.3893 150.369 16.592 151.137 16.592C152.023 16.592 152.844 16.304 153.601 15.728L154.177 17.104C153.793 17.4133 153.319 17.664 152.753 17.856C152.199 18.0373 151.633 18.128 151.057 18.128C149.735 18.128 148.695 17.7547 147.937 17.008C147.18 16.2613 146.801 15.2373 146.801 13.936C146.801 13.1147 146.967 12.384 147.297 11.744C147.628 11.104 148.092 10.608 148.689 10.256C149.287 9.89333 149.964 9.712 150.721 9.712C151.831 9.712 152.705 10.0747 153.345 10.8C153.996 11.5147 154.321 12.5013 154.321 13.76V14.064ZM150.769 11.152C150.236 11.152 149.799 11.312 149.457 11.632C149.127 11.9413 148.913 12.3947 148.817 12.992H152.577C152.513 12.384 152.327 11.9253 152.017 11.616C151.719 11.3067 151.303 11.152 150.769 11.152ZM160.719 9.712C162.65 9.712 163.615 10.8213 163.615 13.04V18H161.615V13.136C161.615 12.496 161.492 12.032 161.247 11.744C161.002 11.4453 160.623 11.296 160.111 11.296C159.503 11.296 159.012 11.4933 158.639 11.888C158.266 12.272 158.079 12.784 158.079 13.424V18H156.095V12.208C156.095 11.3547 156.052 10.592 155.967 9.92H157.839L157.983 11.248C158.26 10.7573 158.634 10.3787 159.103 10.112C159.583 9.84533 160.122 9.712 160.719 9.712ZM168.36 11.424V15.04C168.36 15.9893 168.802 16.464 169.688 16.464C169.933 16.464 170.2 16.4213 170.488 16.336V17.92C170.136 18.048 169.709 18.112 169.208 18.112C168.29 18.112 167.586 17.856 167.096 17.344C166.605 16.832 166.36 16.096 166.36 15.136V11.424H164.808V9.92H166.36V7.952L168.36 7.28V9.92H170.504V11.424H168.36ZM174.918 18.128C173.457 18.128 172.294 17.7867 171.43 17.104L171.99 15.696C172.854 16.336 173.841 16.656 174.95 16.656C175.43 16.656 175.798 16.576 176.054 16.416C176.321 16.256 176.454 16.032 176.454 15.744C176.454 15.4987 176.363 15.3067 176.182 15.168C176.001 15.0187 175.691 14.8907 175.254 14.784L173.91 14.48C172.438 14.16 171.702 13.408 171.702 12.224C171.702 11.7333 171.841 11.3013 172.118 10.928C172.395 10.544 172.785 10.2453 173.286 10.032C173.787 9.81867 174.369 9.712 175.03 9.712C175.606 9.712 176.161 9.80267 176.694 9.984C177.227 10.1547 177.697 10.4053 178.102 10.736L177.51 12.096C176.699 11.4987 175.867 11.2 175.014 11.2C174.555 11.2 174.198 11.2853 173.942 11.456C173.686 11.6267 173.558 11.8613 173.558 12.16C173.558 12.3947 173.633 12.5813 173.782 12.72C173.942 12.8587 174.209 12.976 174.582 13.072L175.958 13.376C176.758 13.5573 177.339 13.84 177.702 14.224C178.075 14.5973 178.262 15.088 178.262 15.696C178.262 16.4427 177.963 17.0347 177.366 17.472C176.769 17.9093 175.953 18.128 174.918 18.128Z" fill="#11142D"/>
<path d="M12 2C10.0222 2 8.08879 2.58649 6.4443 3.6853C4.79981 4.78412 3.51809 6.3459 2.76121 8.17317C2.00433 10.0004 1.8063 12.0111 2.19215 13.9509C2.578 15.8907 3.53041 17.6725 4.92894 19.0711C6.32746 20.4696 8.10929 21.422 10.0491 21.8079C11.9889 22.1937 13.9996 21.9957 15.8268 21.2388C17.6541 20.4819 19.2159 19.2002 20.3147 17.5557C21.4135 15.9112 22 13.9778 22 12C21.9971 9.34873 20.9426 6.80688 19.0679 4.93215C17.1931 3.05742 14.6513 2.00291 12 2ZM12 20C10.4178 20 8.87104 19.5308 7.55544 18.6518C6.23985 17.7727 5.21447 16.5233 4.60897 15.0615C4.00347 13.5997 3.84504 11.9911 4.15372 10.4393C4.4624 8.88743 5.22433 7.46197 6.34315 6.34315C7.46197 5.22433 8.88743 4.4624 10.4393 4.15372C11.9911 3.84504 13.5997 4.00346 15.0615 4.60896C16.5233 5.21447 17.7727 6.23984 18.6518 7.55544C19.5308 8.87103 20 10.4177 20 12C19.9976 14.121 19.154 16.1544 17.6542 17.6542C16.1545 19.154 14.121 19.9976 12 20Z" fill="#FA3C45"/>
<path d="M16.293 8.29297L11 13.586L8.70697 11.293L7.29297 12.707L11 16.414L17.707 9.70697L16.293 8.29297Z" fill="#FA3C45"/>
</svg>
