<svg width="139" height="24" viewBox="0 0 139 24" fill="none" xmlns="http://www.w3.org/2000/svg">
<path d="M45.088 18.144C44.2133 18.144 43.392 18.0267 42.624 17.792C41.8667 17.5573 41.2213 17.2213 40.688 16.784L41.392 15.28C41.9467 15.696 42.5227 16.0053 43.12 16.208C43.728 16.4 44.3893 16.496 45.104 16.496C45.8933 16.496 46.5013 16.3573 46.928 16.08C47.3653 15.8027 47.584 15.4133 47.584 14.912C47.584 14.4853 47.3813 14.16 46.976 13.936C46.5813 13.7013 45.9253 13.4827 45.008 13.28C43.5787 12.9707 42.5387 12.5707 41.888 12.08C41.2373 11.5893 40.912 10.8747 40.912 9.936C40.912 9.264 41.0933 8.66667 41.456 8.144C41.8187 7.62133 42.3307 7.21067 42.992 6.912C43.664 6.61333 44.4373 6.464 45.312 6.464C46.112 6.464 46.8693 6.58667 47.584 6.832C48.3093 7.06667 48.9013 7.39733 49.36 7.824L48.672 9.328C47.6587 8.51733 46.5387 8.112 45.312 8.112C44.576 8.112 43.9947 8.26667 43.568 8.576C43.1413 8.87467 42.928 9.28533 42.928 9.808C42.928 10.256 43.1147 10.5973 43.488 10.832C43.872 11.0667 44.5227 11.2853 45.44 11.488C46.3893 11.712 47.1627 11.9573 47.76 12.224C48.3573 12.48 48.816 12.816 49.136 13.232C49.456 13.6373 49.616 14.1493 49.616 14.768C49.616 15.4507 49.4347 16.048 49.072 16.56C48.7093 17.0613 48.1867 17.4507 47.504 17.728C46.8213 18.0053 46.016 18.144 45.088 18.144ZM58.5369 14.064H52.9689C53.0115 14.928 53.2249 15.568 53.6089 15.984C54.0035 16.3893 54.5849 16.592 55.3529 16.592C56.2382 16.592 57.0595 16.304 57.8169 15.728L58.3929 17.104C58.0089 17.4133 57.5342 17.664 56.9689 17.856C56.4142 18.0373 55.8489 18.128 55.2729 18.128C53.9502 18.128 52.9102 17.7547 52.1529 17.008C51.3955 16.2613 51.0169 15.2373 51.0169 13.936C51.0169 13.1147 51.1822 12.384 51.5129 11.744C51.8435 11.104 52.3075 10.608 52.9049 10.256C53.5022 9.89333 54.1795 9.712 54.9369 9.712C56.0462 9.712 56.9209 10.0747 57.5609 10.8C58.2115 11.5147 58.5369 12.5013 58.5369 13.76V14.064ZM54.9849 11.152C54.4515 11.152 54.0142 11.312 53.6729 11.632C53.3422 11.9413 53.1289 12.3947 53.0329 12.992H56.7929C56.7289 12.384 56.5422 11.9253 56.2329 11.616C55.9342 11.3067 55.5182 11.152 54.9849 11.152ZM60.3105 6.224H62.2945V18H60.3105V6.224ZM64.5624 6.224H66.5464V18H64.5624V6.224ZM78.2609 13.488V18H76.1969V13.488L71.5729 6.608H73.9249L77.2209 11.76L80.5329 6.608H82.8849L78.2609 13.488ZM85.8257 18.128C85.0044 18.128 84.2791 17.9573 83.6497 17.616C83.0311 17.2747 82.5511 16.7893 82.2097 16.16C81.8791 15.52 81.7137 14.7733 81.7137 13.92C81.7137 13.0667 81.8791 12.3253 82.2097 11.696C82.5511 11.056 83.0311 10.5653 83.6497 10.224C84.2791 9.88267 85.0044 9.712 85.8257 9.712C86.6364 9.712 87.3511 9.88267 87.9697 10.224C88.5884 10.5653 89.0631 11.056 89.3938 11.696C89.7351 12.3253 89.9058 13.0667 89.9058 13.92C89.9058 14.7733 89.7351 15.52 89.3938 16.16C89.0631 16.7893 88.5884 17.2747 87.9697 17.616C87.3511 17.9573 86.6364 18.128 85.8257 18.128ZM85.8097 16.56C86.4924 16.56 87.0097 16.3413 87.3617 15.904C87.7244 15.456 87.9057 14.7947 87.9057 13.92C87.9057 13.056 87.7244 12.4 87.3617 11.952C86.9991 11.4933 86.4871 11.264 85.8257 11.264C85.1537 11.264 84.6364 11.4933 84.2737 11.952C83.9111 12.4 83.7297 13.056 83.7297 13.92C83.7297 14.7947 83.9057 15.456 84.2577 15.904C84.6204 16.3413 85.1377 16.56 85.8097 16.56ZM99.0705 9.92V18H97.1185V16.752C96.8625 17.2 96.5212 17.5413 96.0945 17.776C95.6678 18.0107 95.1772 18.128 94.6225 18.128C92.6492 18.128 91.6625 17.0187 91.6625 14.8V9.92H93.6465V14.816C93.6465 15.4027 93.7638 15.8347 93.9985 16.112C94.2438 16.3893 94.6172 16.528 95.1185 16.528C95.7052 16.528 96.1745 16.336 96.5265 15.952C96.8785 15.568 97.0545 15.056 97.0545 14.416V9.92H99.0705ZM105.674 9.728C105.983 9.728 106.25 9.77067 106.474 9.856L106.458 11.68C106.116 11.5413 105.764 11.472 105.402 11.472C104.719 11.472 104.196 11.6693 103.834 12.064C103.482 12.4587 103.306 12.9813 103.306 13.632V18H101.322V12.208C101.322 11.3547 101.279 10.592 101.194 9.92H103.066L103.226 11.344C103.428 10.8213 103.748 10.4213 104.186 10.144C104.623 9.86667 105.119 9.728 105.674 9.728ZM117.45 18.144C116.33 18.144 115.349 17.904 114.506 17.424C113.674 16.944 113.034 16.2667 112.586 15.392C112.138 14.5067 111.914 13.472 111.914 12.288C111.914 11.1147 112.138 10.0907 112.586 9.216C113.034 8.33067 113.674 7.65333 114.506 7.184C115.349 6.704 116.33 6.464 117.45 6.464C118.218 6.464 118.938 6.58667 119.61 6.832C120.293 7.06667 120.858 7.39733 121.306 7.824L120.634 9.328C120.122 8.912 119.61 8.61333 119.098 8.432C118.597 8.24 118.058 8.144 117.482 8.144C116.383 8.144 115.53 8.50133 114.922 9.216C114.325 9.93067 114.026 10.9547 114.026 12.288C114.026 13.632 114.325 14.6667 114.922 15.392C115.519 16.1067 116.373 16.464 117.482 16.464C118.058 16.464 118.597 16.3733 119.098 16.192C119.61 16 120.122 15.696 120.634 15.28L121.306 16.784C120.858 17.2107 120.293 17.5467 119.61 17.792C118.938 18.0267 118.218 18.144 117.45 18.144ZM130.743 9.92V18H128.775V16.704C128.53 17.152 128.178 17.504 127.719 17.76C127.26 18.0053 126.738 18.128 126.151 18.128C125.447 18.128 124.823 17.9573 124.279 17.616C123.735 17.2747 123.314 16.7893 123.015 16.16C122.716 15.5307 122.567 14.8 122.567 13.968C122.567 13.136 122.716 12.4 123.015 11.76C123.324 11.1093 123.751 10.608 124.295 10.256C124.839 9.89333 125.458 9.712 126.151 9.712C126.738 9.712 127.26 9.84 127.719 10.096C128.178 10.3413 128.53 10.688 128.775 11.136V9.92H130.743ZM126.695 16.56C127.356 16.56 127.868 16.3307 128.231 15.872C128.594 15.4133 128.775 14.768 128.775 13.936C128.775 13.0827 128.594 12.4267 128.231 11.968C127.868 11.5093 127.351 11.28 126.679 11.28C126.018 11.28 125.5 11.52 125.127 12C124.764 12.4693 124.583 13.1253 124.583 13.968C124.583 14.8 124.764 15.44 125.127 15.888C125.5 16.336 126.023 16.56 126.695 16.56ZM137.353 9.728C137.662 9.728 137.929 9.77067 138.153 9.856L138.137 11.68C137.796 11.5413 137.444 11.472 137.081 11.472C136.398 11.472 135.876 11.6693 135.513 12.064C135.161 12.4587 134.985 12.9813 134.985 13.632V18H133.001V12.208C133.001 11.3547 132.958 10.592 132.873 9.92H134.745L134.905 11.344C135.108 10.8213 135.428 10.4213 135.865 10.144C136.302 9.86667 136.798 9.728 137.353 9.728Z" fill="#11142D"/>
<path d="M12 2C10.0222 2 8.08879 2.58649 6.4443 3.6853C4.79981 4.78412 3.51809 6.3459 2.76121 8.17317C2.00433 10.0004 1.8063 12.0111 2.19215 13.9509C2.578 15.8907 3.53041 17.6725 4.92894 19.0711C6.32746 20.4696 8.10929 21.422 10.0491 21.8079C11.9889 22.1937 13.9996 21.9957 15.8268 21.2388C17.6541 20.4819 19.2159 19.2002 20.3147 17.5557C21.4135 15.9112 22 13.9778 22 12C21.9971 9.34873 20.9426 6.80688 19.0679 4.93215C17.1931 3.05742 14.6513 2.00291 12 2ZM12 20C10.4178 20 8.87104 19.5308 7.55544 18.6518C6.23985 17.7727 5.21447 16.5233 4.60897 15.0615C4.00347 13.5997 3.84504 11.9911 4.15372 10.4393C4.4624 8.88743 5.22433 7.46197 6.34315 6.34315C7.46197 5.22433 8.88743 4.4624 10.4393 4.15372C11.9911 3.84504 13.5997 4.00346 15.0615 4.60896C16.5233 5.21447 17.7727 6.23984 18.6518 7.55544C19.5308 8.87103 20 10.4177 20 12C19.9976 14.121 19.154 16.1544 17.6542 17.6542C16.1545 19.154 14.121 19.9976 12 20Z" fill="#FA3C45"/>
<path d="M16.293 8.29297L11 13.586L8.70697 11.293L7.29297 12.707L11 16.414L17.707 9.70697L16.293 8.29297Z" fill="#FA3C45"/>
</svg>
