<svg width="143" height="58" viewBox="0 0 143 58" fill="none" xmlns="http://www.w3.org/2000/svg">
<g clip-path="url(#clip0_1133_1136)">
<path d="M0 25.2046V30.305C1.79048 30.3038 3.56363 30.6462 5.218 31.3128C6.87237 31.9793 8.37548 32.9569 9.64133 34.1895C10.9069 35.4217 11.9105 36.8846 12.5948 38.4946C13.2792 40.1046 13.6308 41.8301 13.6297 43.5725H18.8656C18.8608 38.703 16.8718 34.0343 13.335 30.5908C9.79813 27.1472 5.00235 25.2102 0 25.2046H0Z" fill="white"/>
<path d="M26.1844 16.0225H17.8867C22.0844 18.6119 25.6412 22.0737 28.3019 26.1594V18.0822C28.3015 17.5358 28.0782 17.0119 27.6812 16.6257C27.2841 16.2394 26.7458 16.0225 26.1844 16.0225V16.0225Z" fill="white"/>
<path d="M5.21354 16.0225H0V20.6146C6.25309 20.6209 12.2482 23.0417 16.6699 27.3458C21.0916 31.6498 23.5786 37.4855 23.5853 43.5725H28.3021V38.4975C27.2356 32.9197 24.459 27.7871 20.3377 23.7752C16.2163 19.7634 10.9436 17.0606 5.21354 16.0225V16.0225Z" fill="white"/>
<path d="M41.1358 19.0552H37.8125V35.3604H41.1358V19.0552Z" fill="white"/>
<path d="M53.3541 26.1199C52.8009 25.6304 52.1533 25.2526 51.4489 25.0085C49.9359 24.4913 48.2869 24.4913 46.7739 25.0085C46.0692 25.2524 45.4214 25.6302 44.868 26.1199C44.3252 26.607 43.8917 27.1979 43.5944 27.8556C43.2871 28.5731 43.1289 29.3427 43.1289 30.1201C43.1289 30.8975 43.2871 31.6671 43.5944 32.3846C43.8905 33.0442 44.3242 33.6368 44.868 34.1246C45.4204 34.6147 46.0679 34.9923 46.7724 35.2353C48.2853 35.7535 49.9345 35.7535 51.4475 35.2353C52.1522 34.9923 52.7999 34.6147 53.3526 34.1246C53.8961 33.6366 54.3298 33.0441 54.6262 32.3846C54.9335 31.6671 55.0917 30.8975 55.0917 30.1201C55.0917 29.3427 54.9335 28.5731 54.6262 27.8556C54.3292 27.1981 53.8962 26.6072 53.3541 26.1199ZM51.0721 32.0403C50.5339 32.5121 49.8353 32.7733 49.111 32.7733C48.3868 32.7733 47.6881 32.5121 47.15 32.0403C46.6977 31.4968 46.4509 30.8185 46.4509 30.119C46.4509 29.4195 46.6977 28.7413 47.15 28.1978C47.6881 27.7259 48.3868 27.4648 49.111 27.4648C49.8353 27.4648 50.5339 27.7259 51.0721 28.1978C51.5244 28.7413 51.7712 29.4195 51.7712 30.119C51.7712 30.8185 51.5244 31.4968 51.0721 32.0403V32.0403Z" fill="white"/>
<path d="M65.285 26.2595H65.2433C65.0896 26.0495 64.9111 25.8577 64.7115 25.6882C64.4697 25.48 64.2019 25.3022 63.9146 25.159C63.1882 24.7961 62.3819 24.6112 61.5655 24.6203C60.8501 24.6081 60.1426 24.7674 59.5054 25.0843C58.9117 25.3836 58.3874 25.7984 57.9652 26.303C57.5346 26.8231 57.2043 27.4149 56.9902 28.0495C56.7626 28.7034 56.6466 29.3891 56.6469 30.0795C56.6385 30.8206 56.7661 31.5572 57.0237 32.2545C57.2572 32.8909 57.621 33.4745 58.0933 33.9699C58.5637 34.4546 59.1347 34.8364 59.7683 35.09C60.4572 35.3633 61.1955 35.4989 61.9394 35.4888C62.4896 35.4795 63.0336 35.3737 63.5451 35.1763C64.1188 34.9645 64.6159 34.5931 64.9744 34.1084H65.0191V35.1234C65.0315 35.4619 64.9742 35.7995 64.8505 36.1161C64.7268 36.4327 64.5393 36.7221 64.2989 36.967C63.9938 37.2297 63.6372 37.4294 63.2506 37.5541C62.864 37.6787 62.4554 37.7256 62.0496 37.692C61.4062 37.699 60.7684 37.574 60.1779 37.3252C59.5904 37.0696 59.0422 36.7358 58.5491 36.3334L56.7102 39.005C57.4618 39.5943 58.3404 40.0109 59.2805 40.2237C60.2107 40.4319 61.1621 40.5368 62.1166 40.5362C64.214 40.5362 65.7758 40.0222 66.8021 38.9941C67.8284 37.9661 68.3418 36.46 68.3423 34.4759V24.8791H65.2887L65.285 26.2595ZM65.0854 31.0365C64.9543 31.3434 64.7621 31.6221 64.5201 31.8565C64.2736 32.0956 63.9847 32.2891 63.6673 32.4278C63.3377 32.5703 62.9811 32.6439 62.6205 32.6439C62.2599 32.6439 61.9032 32.5703 61.5737 32.4278C61.2605 32.2872 60.9753 32.0938 60.7313 31.8565C60.4882 31.6201 60.2953 31.3394 60.1637 31.0304C60.0321 30.7213 59.9644 30.3901 59.9644 30.0556C59.9644 29.7211 60.0321 29.3899 60.1637 29.0809C60.2953 28.7718 60.4882 28.4911 60.7313 28.2547C60.9755 28.0174 61.2606 27.8238 61.5737 27.6827C61.9034 27.5407 62.2599 27.4673 62.6205 27.4673C62.981 27.4673 63.3376 27.5407 63.6673 27.6827C63.9846 27.8219 64.2735 28.0157 64.5201 28.2547C64.8857 28.6124 65.1344 29.0674 65.235 29.5624C65.3356 30.0574 65.2835 30.5703 65.0854 31.0365V31.0365Z" fill="white"/>
<path d="M80.8268 26.1199C80.2735 25.6304 79.626 25.2526 78.9216 25.0085C77.4085 24.4913 75.7596 24.4913 74.2465 25.0085C73.5419 25.2524 72.894 25.6302 72.3406 26.1199C71.7979 26.607 71.3643 27.1979 71.067 27.8556C70.7598 28.5731 70.6016 29.3427 70.6016 30.1201C70.6016 30.8975 70.7598 31.6671 71.067 32.3846C71.3632 33.0442 71.7969 33.6368 72.3406 34.1246C72.8935 34.6149 73.5415 34.9925 74.2465 35.2353C75.7594 35.7535 77.4087 35.7535 78.9216 35.2353C79.6263 34.9923 80.2741 34.6147 80.8268 34.1246C81.3705 33.6368 81.8042 33.0442 82.1004 32.3846C82.4076 31.6671 82.5658 30.8975 82.5658 30.1201C82.5658 29.3427 82.4076 28.5731 82.1004 27.8556C81.8031 27.1979 81.3695 26.607 80.8268 26.1199V26.1199ZM78.5447 32.0403C78.0066 32.5121 77.308 32.7733 76.5837 32.7733C75.8594 32.7733 75.1608 32.5121 74.6227 32.0403C74.1704 31.4968 73.9235 30.8185 73.9235 30.119C73.9235 29.4195 74.1704 28.7413 74.6227 28.1978C75.1608 27.7259 75.8594 27.4648 76.5837 27.4648C77.308 27.4648 78.0066 27.7259 78.5447 28.1978C78.997 28.7413 79.2438 29.4195 79.2438 30.119C79.2438 30.8185 78.997 31.4968 78.5447 32.0403Z" fill="white"/>
<path d="M86.9756 24.9517H85.1934V35.3605H86.9756V24.9517Z" fill="white"/>
<path d="M86.085 19.6145C85.9122 19.6113 85.7406 19.6432 85.5812 19.7083C85.4218 19.7733 85.2781 19.87 85.1592 19.9922C84.978 20.1701 84.8549 20.3961 84.8055 20.642C84.7561 20.8878 84.7825 21.1424 84.8815 21.3736C84.9805 21.6048 85.1475 21.8024 85.3616 21.9413C85.5757 22.0803 85.8273 22.1544 86.0846 22.1544C86.342 22.1544 86.5935 22.0803 86.8076 21.9413C87.0218 21.8024 87.1888 21.6048 87.2878 21.3736C87.3867 21.1424 87.4132 20.8878 87.3638 20.642C87.3143 20.3961 87.1913 20.1701 87.01 19.9922C86.8914 19.87 86.7478 19.7732 86.5885 19.7082C86.4292 19.6431 86.2577 19.6112 86.085 19.6145V19.6145Z" fill="white"/>
<path d="M100.159 26.2452C99.6581 25.7469 99.055 25.3565 98.3891 25.099C97.6582 24.8186 96.8784 24.6789 96.0929 24.6879C95.3529 24.6796 94.6212 24.8398 93.9561 25.1555C93.301 25.4726 92.7211 25.9193 92.2535 26.4671H92.2058V24.9518H90.4258V40.432H92.2058V33.5155H92.2513C92.6296 34.1498 93.181 34.6698 93.8444 35.0177C94.6145 35.4374 95.4861 35.6487 96.3685 35.6296C97.0909 35.6341 97.8066 35.4939 98.471 35.2178C99.1126 34.9529 99.6917 34.5631 100.173 34.0723C100.661 33.5707 101.046 32.9818 101.304 32.3381C101.852 30.9337 101.852 29.3824 101.304 27.978C101.043 27.3327 100.654 26.7439 100.159 26.2452V26.2452ZM99.5308 31.6827C99.3647 32.1359 99.1048 32.5511 98.7673 32.9027C98.4297 33.2542 98.0217 33.5346 97.5683 33.7265C96.566 34.1261 95.4425 34.1261 94.4402 33.7265C93.9862 33.5346 93.5776 33.254 93.2396 32.902C92.9017 32.5501 92.6416 32.1343 92.4754 31.6805C92.1256 30.6941 92.1256 29.622 92.4754 28.6355C92.6416 28.1817 92.9017 27.766 93.2396 27.414C93.5776 27.0621 93.9862 26.7815 94.4402 26.5896C95.4425 26.19 96.566 26.19 97.5683 26.5896C98.0223 26.7815 98.4309 27.0621 98.7689 27.414C99.1069 27.766 99.367 28.1817 99.5331 28.6355C99.8829 29.622 99.8829 30.6941 99.5331 31.6805L99.5308 31.6827Z" fill="white"/>
<path d="M110.693 30.1598C110.354 29.9132 109.977 29.7218 109.576 29.5928C109.135 29.4481 108.684 29.3328 108.227 29.2477C107.885 29.1907 107.546 29.1167 107.211 29.0259C106.913 28.947 106.622 28.8427 106.342 28.7141C106.119 28.6153 105.916 28.4755 105.747 28.3023C105.602 28.1474 105.525 27.9444 105.53 27.7354C105.526 27.5097 105.594 27.2885 105.724 27.1017C105.852 26.9172 106.02 26.7616 106.215 26.6457C106.424 26.5227 106.652 26.4326 106.89 26.3789C107.134 26.3202 107.384 26.2902 107.635 26.2897C108.112 26.2753 108.584 26.3951 108.994 26.6348C109.364 26.8613 109.673 27.1699 109.897 27.5353L111.382 26.579C111.053 25.9469 110.518 25.4384 109.862 25.1326C109.2 24.8335 108.478 24.6816 107.749 24.6882C107.254 24.687 106.762 24.7544 106.287 24.8883C105.831 25.0147 105.399 25.2105 105.006 25.4683C104.631 25.7151 104.318 26.0422 104.092 26.4246C103.859 26.8318 103.74 27.2922 103.75 27.7586C103.731 28.2151 103.838 28.6682 104.058 29.0715C104.259 29.4089 104.54 29.6947 104.877 29.9053C105.25 30.1339 105.653 30.3098 106.077 30.428C106.534 30.5614 107.014 30.6801 107.516 30.784C107.806 30.8434 108.088 30.9101 108.362 30.9841C108.618 31.0511 108.864 31.1521 109.093 31.2842C109.294 31.4006 109.469 31.5558 109.607 31.7403C109.744 31.9446 109.812 32.1858 109.801 32.4297C109.809 32.6861 109.738 32.9388 109.596 33.1547C109.454 33.3594 109.266 33.5304 109.048 33.655C108.811 33.7925 108.552 33.8905 108.282 33.945C108.008 34.0036 107.728 34.0335 107.448 34.0342C106.892 34.0551 106.342 33.924 105.86 33.6557C105.416 33.3808 105.025 33.0318 104.706 32.6248L103.291 33.6927C103.729 34.3549 104.351 34.8828 105.084 35.2152C105.836 35.5057 106.641 35.6457 107.449 35.627C107.976 35.6274 108.501 35.5678 109.013 35.4494C109.501 35.3397 109.965 35.1478 110.384 34.8824C110.785 34.6235 111.117 34.2756 111.353 33.8674C111.608 33.4042 111.735 32.8837 111.719 32.358C111.734 31.906 111.64 31.457 111.445 31.0464C111.268 30.6984 111.01 30.3949 110.693 30.1598V30.1598Z" fill="white"/>
<path d="M123.532 32.8919V24.9517H121.749V30.0267C121.755 30.5738 121.69 31.1194 121.555 31.6507C121.441 32.106 121.238 32.5361 120.959 32.918C120.694 33.273 120.34 33.5562 119.931 33.7408C119.46 33.9443 118.949 34.0433 118.434 34.0308C118.086 34.0582 117.736 34.0039 117.414 33.8723C117.092 33.7407 116.807 33.5357 116.583 33.2747C116.155 32.6683 115.946 31.9409 115.988 31.2062V24.9517H114.205V31.3795C114.2 31.9622 114.281 32.5426 114.445 33.1028C114.589 33.5995 114.843 34.0593 115.19 34.4492C115.537 34.8303 115.971 35.1281 116.456 35.3192C117.035 35.5389 117.652 35.6449 118.273 35.6309C118.69 35.6342 119.106 35.5778 119.507 35.4634C119.868 35.3609 120.214 35.2114 120.535 35.019C120.826 34.8442 121.091 34.631 121.323 34.3854C121.531 34.1668 121.704 33.9193 121.837 33.6509H121.883C121.883 33.9482 121.89 34.2382 121.906 34.5209C121.921 34.8037 121.929 35.0855 121.928 35.3663H123.62C123.62 35.0246 123.604 34.6464 123.573 34.2317C123.543 33.817 123.529 33.3704 123.532 32.8919Z" fill="white"/>
<path d="M142.795 27.2315C142.676 26.7279 142.442 26.257 142.109 25.854C141.774 25.4642 141.341 25.1646 140.853 24.984C140.238 24.768 139.587 24.6662 138.933 24.6839C138.224 24.6537 137.522 24.8362 136.923 25.2066C136.367 25.5947 135.9 26.0909 135.552 26.6639C135.461 26.4855 135.343 26.2815 135.198 26.052C135.036 25.8041 134.831 25.5857 134.592 25.4067C134.299 25.1895 133.972 25.0182 133.624 24.8992C133.157 24.7463 132.665 24.6746 132.172 24.6875C131.755 24.6842 131.339 24.7406 130.939 24.855C130.577 24.9575 130.231 25.107 129.91 25.2994C129.619 25.4744 129.354 25.6876 129.122 25.9331C128.914 26.1516 128.741 26.3991 128.608 26.6675H128.562C128.562 26.3702 128.555 26.0817 128.54 25.7975C128.525 25.5133 128.517 25.2342 128.517 24.9521H126.826C126.826 25.2938 126.841 25.6721 126.872 26.0868C126.902 26.5015 126.917 26.9464 126.917 27.4215V35.361H128.701V30.2903C128.695 29.7429 128.76 29.197 128.895 28.6656C129.009 28.21 129.211 27.7799 129.491 27.3983C129.756 27.0432 130.11 26.7599 130.519 26.5754C130.99 26.3718 131.501 26.2728 132.016 26.2854C132.321 26.26 132.627 26.3138 132.904 26.4411C133.181 26.5685 133.418 26.7649 133.592 27.0104C133.975 27.7732 134.14 28.6219 134.072 29.4682V35.3624H135.851V29.3551C135.846 28.927 135.919 28.5014 136.068 28.0986C136.2 27.7416 136.403 27.413 136.664 27.1315C136.911 26.8679 137.21 26.656 137.544 26.5087C137.881 26.3601 138.247 26.2841 138.618 26.2861C139.058 26.2706 139.496 26.3542 139.897 26.5305C140.214 26.6793 140.488 26.901 140.696 27.1764C140.897 27.4491 141.037 27.7594 141.108 28.0878C141.185 28.4313 141.223 28.7818 141.222 29.1332V35.361H143.001V29.044C143.007 28.434 142.938 27.8255 142.795 27.2315Z" fill="white"/>
</g>
<defs>
<clipPath id="clip0_1133_1136">
<rect width="143" height="58" fill="white"/>
</clipPath>
</defs>
</svg>
